<svg xmlns="http://www.w3.org/2000/svg" width="101.524" height="61.51" viewBox="0 0 101.524 61.51">
  <path id="Path_44" data-name="Path 44" d="M18.549-20.736h8.829L37.26,0H50.949l-11.1-22.194c6.885-2.592,10.287-8.667,10.287-16.281,0-10.773-6.642-18.063-17.091-18.063H6.237V0H18.549Zm0-10.368V-45.846h12.96c3.645,0,5.913,1.944,5.913,5.589v3.564c0,3.645-2.268,5.589-5.913,5.589ZM59.373-56.538v33.372C59.373-6.48,65.367.972,81.567.972s22.194-7.452,22.194-24.138V-56.538H91.773V-21.87c0,7.938-2.916,11.907-10.206,11.907S71.361-13.932,71.361-21.87V-56.538Z" transform="translate(-4.237 58.538)" fill="#4aa8ff" stroke="#0054a1" stroke-width="4"/>
</svg>
