<?xml version="1.0" encoding="utf-8"?>
<!-- Generator: Adobe Illustrator 17.1.0, SVG Export Plug-In . SVG Version: 6.00 Build 0)  -->
<!DOCTYPE svg PUBLIC "-//W3C//DTD SVG 1.1//EN" "http://www.w3.org/Graphics/SVG/1.1/DTD/svg11.dtd">
<svg version="1.1" id="Layer_1" xmlns="http://www.w3.org/2000/svg" xmlns:xlink="http://www.w3.org/1999/xlink" x="0px" y="0px"
	 viewBox="0 0 500 500" enable-background="new 0 0 500 500" xml:space="preserve">
<rect fill="#FFFFFF" width="500" height="500"/>
<g>
	<polygon fill="#4B8443" points="184,296 206,296 206,279 284,279 284,296 306,296 306,257 184,257 	"/>
	<rect x="114" y="139" fill="#4B8443" width="272" height="22"/>
	<rect x="144" y="88" fill="#4B8443" width="212" height="22"/>
	<path fill="#4B8443" d="M404.3,283.3c-2-3.5-3-7.7-3.3-12.6c-0.1-1.7,0-6.2,0-13.5v-32.7c0-15.6-4.2-26.5-12.5-32.7
		c-7.7-6-21.5-8.9-39.5-8.9v0.1H151v-0.2c-18,0-31.8,3-39.6,8.9c-8.2,6.2-12.4,17.1-12.4,32.7v32.7c0,11.7-0.2,18.9-1.2,21.6
		c-2.4,6.4-6.8,9.9-14.8,10.6v16.3c8,0.6,12.5,4,14.8,10.4c1,2.8,1.2,10.1,1.2,21.7v32.5c0,15.6,4.3,26.5,12.5,32.7
		c7.4,5.7,20.1,8.7,37.5,8.9v0.1h203v-0.2c17.1-0.3,29.3-3.2,36.4-8.7c8.3-6.2,12.6-17.1,12.6-32.7v-32.5c0-7.4-0.1-12,0-13.6
		c0.2-3.6,0.6-6.3,1.3-8.1c1.3-3.5,2.8-6,4.7-7.5c1.9-1.5,5-2.5,10-2.9v-16.3C411,288.8,406.3,286.8,404.3,283.3z M378.4,308.3
		c-3,5.4-4.4,10.8-4.4,15.9v45.3c0,8.4-1.7,13.9-5.1,16.5c-3.4,2.6-9.9,3.9-19.9,3.9v0.1H151v-0.2c-10,0-16.3-1.3-19.8-3.9
		c-3.5-2.6-5.2-8.1-5.2-16.5v-45.3c0-5.8-1.5-11.2-4.5-16.2c-3.1-5.4-6.9-8.9-11.3-10.6c4.7-1.9,8.6-5.6,11.6-11.1
		c2.8-5.1,4.2-10.3,4.2-15.7v-45.1c0-8.3,1.8-13.8,5.3-16.5c3.2-2.5,9.2-3.8,17.7-4v0.1h200.3c9.6,0,16.2,1.3,19.5,3.9
		c3.4,2.6,5.2,8.1,5.2,16.5v45.3c0,5.5,1.5,10.9,4.6,16.2c3.1,5.3,6.8,8.8,11.2,10.6C385.2,299.3,381.4,302.9,378.4,308.3z"/>
</g>
</svg>
