<?xml version="1.0" encoding="utf-8"?>
<!-- Generator: Adobe Illustrator 24.3.0, SVG Export Plug-In . SVG Version: 6.00 Build 0)  -->
<svg version="1.1" id="Layer_1" xmlns="http://www.w3.org/2000/svg" xmlns:xlink="http://www.w3.org/1999/xlink" x="0px" y="0px"
	 viewBox="0 0 88 144" style="enable-background:new 0 0 88 144;" xml:space="preserve">
<style type="text/css">
	.st0{fill:#4AA8FF;}
</style>
<path class="st0" d="M36.8,144c-0.3,0-0.6,0-0.9,0C8.4,143.4,8,116.3,8,116V85.7l-6.8-6.8c-1.6-1.6-1.6-4.1,0-5.7L8,66.3V36
	c0-0.4,0.2-9.1,4.6-17.8C16.9,9.9,25.7,0,44,0s27.1,9.9,31.4,18.2c4.4,8.7,4.6,17.4,4.6,17.7l0,30.4l6.8,6.8c1.6,1.6,1.6,4.1,0,5.7
	L80,85.7V100c0,2.2-1.8,4-4,4s-4-1.8-4-4V84c0-1.1,0.4-2.1,1.2-2.8l5.2-5.2l-5.2-5.2C72.4,70.1,72,69.1,72,68V36c0-1.1-0.9-28-28-28
	C16.9,8,16,34.9,16,36.1L16,68c0,1.1-0.4,2.1-1.2,2.8L9.7,76l5.2,5.2c0.8,0.8,1.2,1.8,1.2,2.8v32c0,2,0.8,19.6,20.1,20
	c5.8,0.1,10.5-1.4,13.8-4.7c5.9-5.8,6.1-15.2,6.1-15.3V52c0-1.9-0.8-11.9-12.1-12c-4.9-0.1-8.2,1.7-10.2,5.5
	C32.1,48.7,32,52,32,52.1l0,47.9c0,2.2-1.8,4-4,4s-4-1.8-4-4V52c0-0.4,0.1-9.1,6.1-14.9c3.5-3.5,8.2-5.2,13.9-5.1
	C59.7,32.2,63.9,45.2,64,52v64c0,0.5-0.1,12.9-8.5,21.1C50.7,141.7,44.4,144,36.8,144z"/>
</svg>
