<svg xmlns="http://www.w3.org/2000/svg" xmlns:xlink="http://www.w3.org/1999/xlink" width="64" height="64" viewBox="0 0 64 64">
  <defs>
    <clipPath id="clip-favicon">
      <rect width="64" height="64"/>
    </clipPath>
  </defs>
  <g id="favicon" clip-path="url(#clip-favicon)">
    <rect id="Rectangle_12" data-name="Rectangle 12" width="64" height="64" rx="21" fill="#fff"/>
    <path id="logo" d="M12.371,48.07h-.3c-9.244-.2-9.379-9.247-9.379-9.347V28.608L.4,26.338a1.324,1.324,0,0,1,0-1.9l2.286-2.3V12.018A14.927,14.927,0,0,1,4.236,6.076C5.681,3.3,8.639,0,14.791,0S23.9,3.3,25.346,6.076a14.948,14.948,0,0,1,1.546,5.909V22.132l2.286,2.27a1.324,1.324,0,0,1,0,1.9l-2.286,2.3v4.774a1.345,1.345,0,0,1-2.689,0V28.041a1.208,1.208,0,0,1,.4-.935l1.748-1.736-1.748-1.736a1.208,1.208,0,0,1-.4-.935V12.018c0-.367-.3-9.347-9.412-9.347s-9.412,8.98-9.412,9.38V22.7a1.208,1.208,0,0,1-.4.935L3.261,25.37l1.748,1.736a1.314,1.314,0,0,1,.4.935V38.723A6.529,6.529,0,0,0,12.169,45.4a6.174,6.174,0,0,0,4.639-1.569,8.15,8.15,0,0,0,2.051-5.107V17.359a3.871,3.871,0,0,0-4.067-4.006,3.432,3.432,0,0,0-3.429,1.836,5.457,5.457,0,0,0-.605,2.2v15.99a1.345,1.345,0,0,1-2.689,0V17.359a7.525,7.525,0,0,1,2.051-4.974,6.213,6.213,0,0,1,4.673-1.7,6.56,6.56,0,0,1,6.723,6.676V38.723a10.71,10.71,0,0,1-2.857,7.044A8.78,8.78,0,0,1,12.371,48.07Z" transform="translate(18.171 7.965)" fill="#4aa8ff"/>
  </g>
</svg>
