<svg xmlns="http://www.w3.org/2000/svg" width="87" height="79.284" viewBox="0 0 87 79.284">
  <g id="Group_12" data-name="Group 12" transform="translate(-1498 -606)">
    <path id="logo" d="M14.411,56h-.352C3.29,55.767,3.133,45.228,3.133,45.111V33.328L.47,30.683a1.542,1.542,0,0,1,0-2.217l2.663-2.683V14a17.389,17.389,0,0,1,1.8-6.922C6.618,3.85,10.064,0,17.231,0s10.613,3.85,12.3,7.078a17.414,17.414,0,0,1,1.8,6.883V25.783l2.663,2.644a1.542,1.542,0,0,1,0,2.217l-2.663,2.683v5.561a1.566,1.566,0,0,1-3.133,0V32.667a1.408,1.408,0,0,1,.47-1.089L30.7,29.556l-2.036-2.022a1.408,1.408,0,0,1-.47-1.089V14c0-.428-.352-10.889-10.965-10.889S6.266,13.572,6.266,14.039V26.444a1.408,1.408,0,0,1-.47,1.089l-2,2.022,2.036,2.022a1.53,1.53,0,0,1,.47,1.089V45.111c0,.778.313,7.622,7.871,7.778a7.193,7.193,0,0,0,5.4-1.828,9.494,9.494,0,0,0,2.389-5.95V20.222a4.51,4.51,0,0,0-4.738-4.667,4,4,0,0,0-3.994,2.139,6.357,6.357,0,0,0-.7,2.567V38.889a1.566,1.566,0,0,1-3.133,0V20.222a8.766,8.766,0,0,1,2.389-5.794,7.238,7.238,0,0,1,5.443-1.983c6.148.078,7.793,5.133,7.832,7.778V45.111c0,.194-.039,5.017-3.329,8.206A10.229,10.229,0,0,1,14.411,56Z" transform="translate(1529 653) rotate(-90)" fill="#4aa8ff"/>
    <g id="Path_15" data-name="Path 15" transform="translate(1506 606)" fill="#fff">
      <path d="M 54.56567001342773 71.28436279296875 L 2.000003576278687 71.28436279296875 L 2.000003576278687 2.000003576278687 L 43.9053955078125 2.000003576278687 L 54.56567001342773 14.09541511535645 L 54.56567001342773 71.28436279296875 Z" stroke="none"/>
      <path d="M 3.999996185302734 3.999992370605469 L 3.999996185302734 69.28435516357422 L 52.56567764282227 69.28435516357422 L 52.56567764282227 14.8509635925293 L 43.0021858215332 3.999992370605469 L 3.999996185302734 3.999992370605469 M -3.814697265625e-06 -7.62939453125e-06 L 44.80860900878906 -7.62939453125e-06 L 56.56567764282227 13.33984756469727 L 56.56567764282227 73.28435516357422 L -3.814697265625e-06 73.28435516357422 L -3.814697265625e-06 -7.62939453125e-06 Z" stroke="none" fill="#0054a1"/>
    </g>
    <g id="Path_16" data-name="Path 16" transform="translate(1498 612)" fill="#fff">
      <path d="M 54.56567001342773 71.28436279296875 L 2.000003576278687 71.28436279296875 L 2.000003576278687 2.000003576278687 L 43.9053955078125 2.000003576278687 L 54.56567001342773 14.09541511535645 L 54.56567001342773 71.28436279296875 Z" stroke="none"/>
      <path d="M 3.999996185302734 3.999992370605469 L 3.999996185302734 69.28435516357422 L 52.56567764282227 69.28435516357422 L 52.56567764282227 14.8509635925293 L 43.0021858215332 3.999992370605469 L 3.999996185302734 3.999992370605469 M -3.814697265625e-06 -7.62939453125e-06 L 44.80860900878906 -7.62939453125e-06 L 56.56567764282227 13.33984756469727 L 56.56567764282227 73.28435516357422 L -3.814697265625e-06 73.28435516357422 L -3.814697265625e-06 -7.62939453125e-06 Z" stroke="none" fill="#0054a1"/>
    </g>
    <path id="logo-2" data-name="logo" d="M21.969,20.222a4.51,4.51,0,0,0-4.738-4.667,4,4,0,0,0-3.994,2.139,6.357,6.357,0,0,0-.7,2.567V38.889a1.566,1.566,0,0,1-3.133,0c0-18.822.039-22.206,2.389-24.461a7.238,7.238,0,0,1,5.443-1.983c6.148.078,7.793,5.133,7.832,7.778C25.063,45.306,21.969,45.15,21.969,20.222Z" transform="translate(1529 653) rotate(-90)" fill="#4aa8ff"/>
    <line id="Line_3" data-name="Line 3" x2="31" transform="translate(1506 648)" fill="none" stroke="#4aa8ff" stroke-width="3"/>
    <line id="Line_7" data-name="Line 7" x2="31" transform="translate(1506 642)" fill="none" stroke="#4aa8ff" stroke-width="3"/>
    <line id="Line_8" data-name="Line 8" x2="31" transform="translate(1506 636)" fill="none" stroke="#4aa8ff" stroke-width="3"/>
    <line id="Line_9" data-name="Line 9" x2="23" transform="translate(1506 630)" fill="none" stroke="#4aa8ff" stroke-width="3"/>
    <line id="Line_4" data-name="Line 4" x2="31" transform="translate(1506 654)" fill="none" stroke="#4aa8ff" stroke-width="3"/>
    <line id="Line_5" data-name="Line 5" x2="23" transform="translate(1506 660)" fill="none" stroke="#4aa8ff" stroke-width="3"/>
    <line id="Line_6" data-name="Line 6" x2="16" transform="translate(1506 670)" fill="none" stroke="#4aa8ff" stroke-width="3"/>
    <line id="Line_10" data-name="Line 10" x2="16" transform="translate(1529 670)" fill="none" stroke="#4aa8ff" stroke-width="3"/>
  </g>
</svg>
